<mxfile host="app.diagrams.net" modified="2021-01-11T06:42:38.890Z" agent="5.0 (Macintosh; Intel Mac OS X 11_1_0) AppleWebKit/537.36 (KHTML, like Gecko) Chrome/87.0.4280.88 Safari/537.36" etag="_CjDNdVNYfQ3nKgVp24h" version="14.1.8" type="github">
  <diagram id="-7qso3VPwIya1xmqI1ie" name="Page-1">
    <mxGraphModel dx="946" dy="589" grid="1" gridSize="10" guides="1" tooltips="1" connect="1" arrows="1" fold="1" page="1" pageScale="1" pageWidth="1920" pageHeight="1200" math="0" shadow="0">
      <root>
        <mxCell id="0" />
        <mxCell id="1" parent="0" />
        <mxCell id="5zx6UMQ0ANoe6JO5xcOM-1" style="edgeStyle=orthogonalEdgeStyle;rounded=0;orthogonalLoop=1;jettySize=auto;html=1;exitX=0.5;exitY=1;exitDx=0;exitDy=0;" edge="1" parent="1" source="5zx6UMQ0ANoe6JO5xcOM-2">
          <mxGeometry relative="1" as="geometry">
            <mxPoint x="470" y="70" as="targetPoint" />
          </mxGeometry>
        </mxCell>
        <mxCell id="5zx6UMQ0ANoe6JO5xcOM-2" value="线索分配" style="rounded=1;whiteSpace=wrap;html=1;" vertex="1" parent="1">
          <mxGeometry x="430" y="10" width="80" height="40" as="geometry" />
        </mxCell>
        <mxCell id="5zx6UMQ0ANoe6JO5xcOM-3" style="edgeStyle=orthogonalEdgeStyle;rounded=0;orthogonalLoop=1;jettySize=auto;html=1;exitX=0.5;exitY=1;exitDx=0;exitDy=0;entryX=0.5;entryY=0;entryDx=0;entryDy=0;" edge="1" parent="1" source="5zx6UMQ0ANoe6JO5xcOM-4" target="5zx6UMQ0ANoe6JO5xcOM-9">
          <mxGeometry relative="1" as="geometry" />
        </mxCell>
        <mxCell id="5zx6UMQ0ANoe6JO5xcOM-4" value="获取待执行任务" style="rounded=1;whiteSpace=wrap;html=1;" vertex="1" parent="1">
          <mxGeometry x="410" y="70" width="120" height="30" as="geometry" />
        </mxCell>
        <mxCell id="5zx6UMQ0ANoe6JO5xcOM-5" style="edgeStyle=orthogonalEdgeStyle;rounded=0;orthogonalLoop=1;jettySize=auto;html=1;exitX=0;exitY=0.5;exitDx=0;exitDy=0;entryX=1;entryY=0.5;entryDx=0;entryDy=0;" edge="1" parent="1" source="5zx6UMQ0ANoe6JO5xcOM-6" target="5zx6UMQ0ANoe6JO5xcOM-4">
          <mxGeometry relative="1" as="geometry" />
        </mxCell>
        <mxCell id="5zx6UMQ0ANoe6JO5xcOM-6" value="查询state=1且business_id&amp;gt;0且updated_at&amp;gt;now() 00:00:00&amp;lt;now() 当前时间点减去一分钟&lt;br&gt;表 ：leads_assign_record&amp;nbsp; &amp;nbsp;只查询1条" style="text;whiteSpace=wrap;html=1;" vertex="1" parent="1">
          <mxGeometry x="580" y="60" width="300" height="50" as="geometry" />
        </mxCell>
        <mxCell id="5zx6UMQ0ANoe6JO5xcOM-8" style="edgeStyle=orthogonalEdgeStyle;rounded=0;orthogonalLoop=1;jettySize=auto;html=1;exitX=0;exitY=0.5;exitDx=0;exitDy=0;entryX=0;entryY=0.5;entryDx=0;entryDy=0;" edge="1" parent="1" source="5zx6UMQ0ANoe6JO5xcOM-9" target="5zx6UMQ0ANoe6JO5xcOM-4">
          <mxGeometry relative="1" as="geometry" />
        </mxCell>
        <mxCell id="5zx6UMQ0ANoe6JO5xcOM-14" style="edgeStyle=orthogonalEdgeStyle;rounded=0;orthogonalLoop=1;jettySize=auto;html=1;exitX=0.5;exitY=1;exitDx=0;exitDy=0;entryX=0.5;entryY=0;entryDx=0;entryDy=0;" edge="1" parent="1" source="5zx6UMQ0ANoe6JO5xcOM-9" target="5zx6UMQ0ANoe6JO5xcOM-12">
          <mxGeometry relative="1" as="geometry" />
        </mxCell>
        <mxCell id="5zx6UMQ0ANoe6JO5xcOM-9" value="判断上一条任务是否执行完" style="rounded=1;whiteSpace=wrap;html=1;" vertex="1" parent="1">
          <mxGeometry x="392.5" y="120" width="155" height="30" as="geometry" />
        </mxCell>
        <mxCell id="5zx6UMQ0ANoe6JO5xcOM-10" value="执行完" style="text;html=1;align=center;verticalAlign=middle;resizable=0;points=[];autosize=1;" vertex="1" parent="1">
          <mxGeometry x="480" y="150" width="50" height="20" as="geometry" />
        </mxCell>
        <mxCell id="5zx6UMQ0ANoe6JO5xcOM-11" value="等一下&lt;br&gt;sleep 10s" style="text;html=1;align=center;verticalAlign=middle;resizable=0;points=[];autosize=1;" vertex="1" parent="1">
          <mxGeometry x="310" y="95" width="70" height="30" as="geometry" />
        </mxCell>
        <mxCell id="5zx6UMQ0ANoe6JO5xcOM-18" style="edgeStyle=orthogonalEdgeStyle;rounded=0;orthogonalLoop=1;jettySize=auto;html=1;exitX=0.5;exitY=1;exitDx=0;exitDy=0;entryX=0.5;entryY=0;entryDx=0;entryDy=0;" edge="1" parent="1" source="5zx6UMQ0ANoe6JO5xcOM-12" target="5zx6UMQ0ANoe6JO5xcOM-17">
          <mxGeometry relative="1" as="geometry" />
        </mxCell>
        <mxCell id="5zx6UMQ0ANoe6JO5xcOM-12" value="可用的stafflist待分配详请" style="rounded=1;whiteSpace=wrap;html=1;" vertex="1" parent="1">
          <mxGeometry x="392.5" y="170" width="157.5" height="30" as="geometry" />
        </mxCell>
        <mxCell id="5zx6UMQ0ANoe6JO5xcOM-16" value="" style="edgeStyle=orthogonalEdgeStyle;rounded=0;orthogonalLoop=1;jettySize=auto;html=1;" edge="1" parent="1" source="5zx6UMQ0ANoe6JO5xcOM-15" target="5zx6UMQ0ANoe6JO5xcOM-12">
          <mxGeometry relative="1" as="geometry" />
        </mxCell>
        <mxCell id="5zx6UMQ0ANoe6JO5xcOM-15" value="&lt;div style=&quot;text-align: left&quot;&gt;&lt;span&gt;map&lt;/span&gt;&lt;/div&gt;&lt;div style=&quot;text-align: left&quot;&gt;&lt;span&gt;可用坐席需要补充多少线索&lt;/span&gt;&lt;/div&gt;&lt;div style=&quot;text-align: left&quot;&gt;&lt;span&gt;待分配线索list&lt;/span&gt;&lt;/div&gt;&lt;div style=&quot;text-align: left&quot;&gt;更新状态&lt;/div&gt;" style="text;html=1;align=center;verticalAlign=middle;resizable=0;points=[];autosize=1;" vertex="1" parent="1">
          <mxGeometry x="580" y="155" width="160" height="60" as="geometry" />
        </mxCell>
        <mxCell id="5zx6UMQ0ANoe6JO5xcOM-21" style="edgeStyle=orthogonalEdgeStyle;rounded=0;orthogonalLoop=1;jettySize=auto;html=1;exitX=0.5;exitY=1;exitDx=0;exitDy=0;entryX=0.5;entryY=0;entryDx=0;entryDy=0;" edge="1" parent="1" source="5zx6UMQ0ANoe6JO5xcOM-17" target="5zx6UMQ0ANoe6JO5xcOM-20">
          <mxGeometry relative="1" as="geometry" />
        </mxCell>
        <mxCell id="5zx6UMQ0ANoe6JO5xcOM-26" style="edgeStyle=orthogonalEdgeStyle;rounded=0;orthogonalLoop=1;jettySize=auto;html=1;entryX=0.007;entryY=0.5;entryDx=0;entryDy=0;entryPerimeter=0;" edge="1" parent="1" source="5zx6UMQ0ANoe6JO5xcOM-17" target="5zx6UMQ0ANoe6JO5xcOM-19">
          <mxGeometry relative="1" as="geometry" />
        </mxCell>
        <mxCell id="5zx6UMQ0ANoe6JO5xcOM-17" value="遍历stafflist" style="rounded=1;whiteSpace=wrap;html=1;" vertex="1" parent="1">
          <mxGeometry x="425.5" y="220" width="89" height="30" as="geometry" />
        </mxCell>
        <mxCell id="5zx6UMQ0ANoe6JO5xcOM-19" value="给每一个坐席分配线索" style="text;html=1;align=center;verticalAlign=middle;resizable=0;points=[];autosize=1;" vertex="1" parent="1">
          <mxGeometry x="630" y="225" width="140" height="20" as="geometry" />
        </mxCell>
        <mxCell id="5zx6UMQ0ANoe6JO5xcOM-30" style="edgeStyle=orthogonalEdgeStyle;rounded=0;orthogonalLoop=1;jettySize=auto;html=1;exitX=0.5;exitY=1;exitDx=0;exitDy=0;entryX=0.5;entryY=0;entryDx=0;entryDy=0;" edge="1" parent="1" source="5zx6UMQ0ANoe6JO5xcOM-20" target="5zx6UMQ0ANoe6JO5xcOM-27">
          <mxGeometry relative="1" as="geometry" />
        </mxCell>
        <mxCell id="5zx6UMQ0ANoe6JO5xcOM-20" value="leads_public中获取分配中的线索" style="rounded=1;whiteSpace=wrap;html=1;" vertex="1" parent="1">
          <mxGeometry x="410" y="270" width="119.38" height="40" as="geometry" />
        </mxCell>
        <mxCell id="5zx6UMQ0ANoe6JO5xcOM-34" style="edgeStyle=orthogonalEdgeStyle;rounded=0;orthogonalLoop=1;jettySize=auto;html=1;exitX=0.5;exitY=1;exitDx=0;exitDy=0;" edge="1" parent="1" source="5zx6UMQ0ANoe6JO5xcOM-27" target="5zx6UMQ0ANoe6JO5xcOM-33">
          <mxGeometry relative="1" as="geometry" />
        </mxCell>
        <mxCell id="5zx6UMQ0ANoe6JO5xcOM-36" style="edgeStyle=orthogonalEdgeStyle;rounded=0;orthogonalLoop=1;jettySize=auto;html=1;exitX=0.5;exitY=1;exitDx=0;exitDy=0;entryX=0.5;entryY=0;entryDx=0;entryDy=0;" edge="1" parent="1" source="5zx6UMQ0ANoe6JO5xcOM-27">
          <mxGeometry relative="1" as="geometry">
            <mxPoint x="582.75" y="410" as="targetPoint" />
          </mxGeometry>
        </mxCell>
        <mxCell id="5zx6UMQ0ANoe6JO5xcOM-27" value="判断线索的当前坐席是否是第一管家" style="rounded=1;whiteSpace=wrap;html=1;" vertex="1" parent="1">
          <mxGeometry x="408.76" y="330" width="120.62" height="30" as="geometry" />
        </mxCell>
        <mxCell id="5zx6UMQ0ANoe6JO5xcOM-33" value="绑定坐席和线索关系" style="rounded=1;whiteSpace=wrap;html=1;" vertex="1" parent="1">
          <mxGeometry x="305.5" y="410" width="114.5" height="30" as="geometry" />
        </mxCell>
        <mxCell id="5zx6UMQ0ANoe6JO5xcOM-37" value="是" style="text;html=1;align=center;verticalAlign=middle;resizable=0;points=[];autosize=1;" vertex="1" parent="1">
          <mxGeometry x="385" y="360" width="30" height="20" as="geometry" />
        </mxCell>
        <mxCell id="5zx6UMQ0ANoe6JO5xcOM-38" value="否" style="text;html=1;align=center;verticalAlign=middle;resizable=0;points=[];autosize=1;" vertex="1" parent="1">
          <mxGeometry x="505" y="360" width="30" height="20" as="geometry" />
        </mxCell>
        <mxCell id="5zx6UMQ0ANoe6JO5xcOM-42" style="edgeStyle=orthogonalEdgeStyle;rounded=0;orthogonalLoop=1;jettySize=auto;html=1;exitX=0.5;exitY=1;exitDx=0;exitDy=0;entryX=0.5;entryY=0;entryDx=0;entryDy=0;" edge="1" parent="1" source="5zx6UMQ0ANoe6JO5xcOM-39" target="5zx6UMQ0ANoe6JO5xcOM-40">
          <mxGeometry relative="1" as="geometry" />
        </mxCell>
        <mxCell id="5zx6UMQ0ANoe6JO5xcOM-43" style="edgeStyle=orthogonalEdgeStyle;rounded=0;orthogonalLoop=1;jettySize=auto;html=1;exitX=0.5;exitY=1;exitDx=0;exitDy=0;entryX=0.5;entryY=0;entryDx=0;entryDy=0;" edge="1" parent="1" source="5zx6UMQ0ANoe6JO5xcOM-39" target="5zx6UMQ0ANoe6JO5xcOM-41">
          <mxGeometry relative="1" as="geometry" />
        </mxCell>
        <mxCell id="5zx6UMQ0ANoe6JO5xcOM-39" value="调用接口最近一次通话记录" style="rounded=1;whiteSpace=wrap;html=1;align=left;" vertex="1" parent="1">
          <mxGeometry x="505" y="410" width="149" height="30" as="geometry" />
        </mxCell>
        <mxCell id="5zx6UMQ0ANoe6JO5xcOM-47" style="edgeStyle=orthogonalEdgeStyle;rounded=0;orthogonalLoop=1;jettySize=auto;html=1;exitX=0.5;exitY=1;exitDx=0;exitDy=0;entryX=0.5;entryY=0;entryDx=0;entryDy=0;" edge="1" parent="1" source="5zx6UMQ0ANoe6JO5xcOM-40" target="5zx6UMQ0ANoe6JO5xcOM-46">
          <mxGeometry relative="1" as="geometry" />
        </mxCell>
        <mxCell id="5zx6UMQ0ANoe6JO5xcOM-50" style="edgeStyle=orthogonalEdgeStyle;rounded=0;orthogonalLoop=1;jettySize=auto;html=1;exitX=0.5;exitY=1;exitDx=0;exitDy=0;entryX=0.5;entryY=0;entryDx=0;entryDy=0;" edge="1" parent="1" source="5zx6UMQ0ANoe6JO5xcOM-40" target="5zx6UMQ0ANoe6JO5xcOM-49">
          <mxGeometry relative="1" as="geometry" />
        </mxCell>
        <mxCell id="5zx6UMQ0ANoe6JO5xcOM-40" value="&lt;span&gt;判断线索创建到最近一次通话时间间隔是否大于60d&lt;/span&gt;" style="rounded=1;whiteSpace=wrap;html=1;" vertex="1" parent="1">
          <mxGeometry x="425.5" y="490" width="150" height="40" as="geometry" />
        </mxCell>
        <mxCell id="5zx6UMQ0ANoe6JO5xcOM-53" style="edgeStyle=orthogonalEdgeStyle;rounded=0;orthogonalLoop=1;jettySize=auto;html=1;exitX=0.5;exitY=1;exitDx=0;exitDy=0;entryX=0.5;entryY=0;entryDx=0;entryDy=0;" edge="1" parent="1" source="5zx6UMQ0ANoe6JO5xcOM-41" target="5zx6UMQ0ANoe6JO5xcOM-52">
          <mxGeometry relative="1" as="geometry" />
        </mxCell>
        <mxCell id="5zx6UMQ0ANoe6JO5xcOM-41" value="判断最近一次分配记录" style="rounded=1;whiteSpace=wrap;html=1;" vertex="1" parent="1">
          <mxGeometry x="655" y="490" width="135" height="40" as="geometry" />
        </mxCell>
        <mxCell id="5zx6UMQ0ANoe6JO5xcOM-44" value="有" style="text;html=1;align=center;verticalAlign=middle;resizable=0;points=[];autosize=1;" vertex="1" parent="1">
          <mxGeometry x="525" y="440" width="30" height="20" as="geometry" />
        </mxCell>
        <mxCell id="5zx6UMQ0ANoe6JO5xcOM-45" value="无" style="text;html=1;align=center;verticalAlign=middle;resizable=0;points=[];autosize=1;" vertex="1" parent="1">
          <mxGeometry x="595" y="440" width="30" height="20" as="geometry" />
        </mxCell>
        <mxCell id="5zx6UMQ0ANoe6JO5xcOM-46" value="随机分配" style="rounded=1;whiteSpace=wrap;html=1;" vertex="1" parent="1">
          <mxGeometry x="370" y="570" width="90" height="40" as="geometry" />
        </mxCell>
        <mxCell id="5zx6UMQ0ANoe6JO5xcOM-48" value="大于" style="text;html=1;align=center;verticalAlign=middle;resizable=0;points=[];autosize=1;" vertex="1" parent="1">
          <mxGeometry x="420" y="530" width="40" height="20" as="geometry" />
        </mxCell>
        <mxCell id="5zx6UMQ0ANoe6JO5xcOM-49" value="&lt;span&gt;绑定坐席和线索关系&lt;/span&gt;" style="rounded=1;whiteSpace=wrap;html=1;" vertex="1" parent="1">
          <mxGeometry x="525" y="570" width="90" height="40" as="geometry" />
        </mxCell>
        <mxCell id="5zx6UMQ0ANoe6JO5xcOM-51" value="小于" style="text;html=1;align=center;verticalAlign=middle;resizable=0;points=[];autosize=1;" vertex="1" parent="1">
          <mxGeometry x="510" y="530" width="40" height="20" as="geometry" />
        </mxCell>
        <mxCell id="5zx6UMQ0ANoe6JO5xcOM-57" style="edgeStyle=orthogonalEdgeStyle;rounded=0;orthogonalLoop=1;jettySize=auto;html=1;exitX=0.5;exitY=1;exitDx=0;exitDy=0;entryX=0.5;entryY=0;entryDx=0;entryDy=0;" edge="1" parent="1" source="5zx6UMQ0ANoe6JO5xcOM-52" target="5zx6UMQ0ANoe6JO5xcOM-54">
          <mxGeometry relative="1" as="geometry" />
        </mxCell>
        <mxCell id="5zx6UMQ0ANoe6JO5xcOM-58" style="edgeStyle=orthogonalEdgeStyle;rounded=0;orthogonalLoop=1;jettySize=auto;html=1;exitX=0.5;exitY=1;exitDx=0;exitDy=0;entryX=0.5;entryY=0;entryDx=0;entryDy=0;" edge="1" parent="1" source="5zx6UMQ0ANoe6JO5xcOM-52" target="5zx6UMQ0ANoe6JO5xcOM-55">
          <mxGeometry relative="1" as="geometry" />
        </mxCell>
        <mxCell id="5zx6UMQ0ANoe6JO5xcOM-52" value="判断线索创建到最近一次分配时间间隔是否大于60d" style="rounded=1;whiteSpace=wrap;html=1;" vertex="1" parent="1">
          <mxGeometry x="646.56" y="570" width="151.87" height="40" as="geometry" />
        </mxCell>
        <mxCell id="5zx6UMQ0ANoe6JO5xcOM-54" value="&lt;span&gt;随机分配&lt;/span&gt;" style="rounded=1;whiteSpace=wrap;html=1;" vertex="1" parent="1">
          <mxGeometry x="575.5" y="670" width="114.5" height="40" as="geometry" />
        </mxCell>
        <mxCell id="5zx6UMQ0ANoe6JO5xcOM-55" value="&lt;span&gt;绑定坐席和线索关系&lt;/span&gt;" style="rounded=1;whiteSpace=wrap;html=1;" vertex="1" parent="1">
          <mxGeometry x="750" y="670" width="110" height="40" as="geometry" />
        </mxCell>
        <mxCell id="5zx6UMQ0ANoe6JO5xcOM-56" value="有" style="text;html=1;align=center;verticalAlign=middle;resizable=0;points=[];autosize=1;" vertex="1" parent="1">
          <mxGeometry x="730" y="540" width="30" height="20" as="geometry" />
        </mxCell>
        <mxCell id="5zx6UMQ0ANoe6JO5xcOM-59" value="大于" style="text;html=1;align=center;verticalAlign=middle;resizable=0;points=[];autosize=1;" vertex="1" parent="1">
          <mxGeometry x="650" y="620" width="40" height="20" as="geometry" />
        </mxCell>
        <mxCell id="5zx6UMQ0ANoe6JO5xcOM-60" value="小于" style="text;html=1;align=center;verticalAlign=middle;resizable=0;points=[];autosize=1;" vertex="1" parent="1">
          <mxGeometry x="740" y="620" width="40" height="20" as="geometry" />
        </mxCell>
        <mxCell id="5zx6UMQ0ANoe6JO5xcOM-62" value="按照fill的数量获取&lt;br&gt;如果超过1000，按照1000获取" style="text;html=1;align=center;verticalAlign=middle;resizable=0;points=[];autosize=1;" vertex="1" parent="1">
          <mxGeometry x="547.5" y="275" width="180" height="30" as="geometry" />
        </mxCell>
        <mxCell id="5zx6UMQ0ANoe6JO5xcOM-67" style="edgeStyle=orthogonalEdgeStyle;rounded=0;orthogonalLoop=1;jettySize=auto;html=1;exitX=0.5;exitY=1;exitDx=0;exitDy=0;" edge="1" parent="1" source="5zx6UMQ0ANoe6JO5xcOM-63" target="5zx6UMQ0ANoe6JO5xcOM-64">
          <mxGeometry relative="1" as="geometry" />
        </mxCell>
        <mxCell id="5zx6UMQ0ANoe6JO5xcOM-68" style="edgeStyle=orthogonalEdgeStyle;rounded=0;orthogonalLoop=1;jettySize=auto;html=1;exitX=0.5;exitY=1;exitDx=0;exitDy=0;entryX=0.5;entryY=0;entryDx=0;entryDy=0;" edge="1" parent="1" source="5zx6UMQ0ANoe6JO5xcOM-63" target="5zx6UMQ0ANoe6JO5xcOM-65">
          <mxGeometry relative="1" as="geometry" />
        </mxCell>
        <mxCell id="5zx6UMQ0ANoe6JO5xcOM-69" style="edgeStyle=orthogonalEdgeStyle;rounded=0;orthogonalLoop=1;jettySize=auto;html=1;exitX=0.5;exitY=1;exitDx=0;exitDy=0;" edge="1" parent="1" source="5zx6UMQ0ANoe6JO5xcOM-63" target="5zx6UMQ0ANoe6JO5xcOM-66">
          <mxGeometry relative="1" as="geometry" />
        </mxCell>
        <mxCell id="5zx6UMQ0ANoe6JO5xcOM-72" style="edgeStyle=orthogonalEdgeStyle;rounded=0;orthogonalLoop=1;jettySize=auto;html=1;exitX=0.5;exitY=1;exitDx=0;exitDy=0;" edge="1" parent="1">
          <mxGeometry relative="1" as="geometry">
            <mxPoint x="623.3399999999999" y="800" as="sourcePoint" />
            <mxPoint x="868.4000000000001" y="842.5" as="targetPoint" />
          </mxGeometry>
        </mxCell>
        <mxCell id="5zx6UMQ0ANoe6JO5xcOM-63" value="以上把每个坐席索引都填满为止" style="rounded=1;whiteSpace=wrap;html=1;align=left;" vertex="1" parent="1">
          <mxGeometry x="575.5" y="750" width="95.68" height="30" as="geometry" />
        </mxCell>
        <mxCell id="5zx6UMQ0ANoe6JO5xcOM-64" value="更新leads_remind" style="rounded=1;whiteSpace=wrap;html=1;" vertex="1" parent="1">
          <mxGeometry x="350" y="820" width="100" height="40" as="geometry" />
        </mxCell>
        <mxCell id="5zx6UMQ0ANoe6JO5xcOM-65" value="更新leads_piublic" style="rounded=1;whiteSpace=wrap;html=1;" vertex="1" parent="1">
          <mxGeometry x="496.85999999999996" y="820" width="100" height="40" as="geometry" />
        </mxCell>
        <mxCell id="5zx6UMQ0ANoe6JO5xcOM-66" value="插入leads_flow_record" style="rounded=1;whiteSpace=wrap;html=1;" vertex="1" parent="1">
          <mxGeometry x="634.09" y="820" width="135.91" height="40" as="geometry" />
        </mxCell>
        <mxCell id="5zx6UMQ0ANoe6JO5xcOM-70" value="更新leads_assign_record" style="rounded=1;whiteSpace=wrap;html=1;" vertex="1" parent="1">
          <mxGeometry x="798.43" y="822.5" width="140" height="35" as="geometry" />
        </mxCell>
        <mxCell id="5zx6UMQ0ANoe6JO5xcOM-73" value="&lt;span style=&quot;color: rgba(0 , 0 , 0 , 0) ; font-family: monospace ; font-size: 0px&quot;&gt;%3CmxGraphModel%3E%3Croot%3E%3CmxCell%20id%3D%220%22%2F%3E%3CmxCell%20id%3D%221%22%20parent%3D%220%22%2F%3E%3CmxCell%20id%3D%222%22%20value%3D%22%E6%B3%A8%EF%BC%9A%E9%9A%8F%E6%9C%BA%E5%88%86%E9%85%8D%E6%8C%89%E7%85%A7%E5%8E%9F%E6%9C%89%E9%80%BB%E8%BE%91%E5%88%86%E4%B8%BA%E4%B8%A4%E7%A7%8D%E6%83%85%E5%86%B5%26lt%3Bbr%26gt%3B1%E3%80%81%E5%B9%B3%E5%9D%87%E5%88%86%EF%BC%8C2%E3%80%81%E9%A1%BA%E5%BA%8F%E5%88%86%22%20style%3D%22text%3Bhtml%3D1%3Balign%3Dcenter%3BverticalAlign%3Dmiddle%3Bresizable%3D0%3Bpoints%3D%5B%5D%3Bautosize%3D1%3B%22%20vertex%3D%221%22%20parent%3D%221%22%3E%3CmxGeometry%20x%3D%22415%22%20y%3D%221045%22%20width%3D%22230%22%20height%3D%2230%22%20as%3D%22geometry%22%2F%3E%3C%2FmxCell%3E%3C%2Froot%3E%3C%2FmxGraphModel%3E&lt;/span&gt;" style="text;html=1;align=center;verticalAlign=middle;resizable=0;points=[];autosize=1;" vertex="1" parent="1">
          <mxGeometry x="170" y="260" width="20" height="20" as="geometry" />
        </mxCell>
        <mxCell id="5zx6UMQ0ANoe6JO5xcOM-75" value="注：随机分配按照原有逻辑分为两种情况&lt;br&gt;1、平均分，2、顺序分" style="text;html=1;align=center;verticalAlign=middle;resizable=0;points=[];autosize=1;" vertex="1" parent="1">
          <mxGeometry x="120" y="560" width="230" height="30" as="geometry" />
        </mxCell>
      </root>
    </mxGraphModel>
  </diagram>
</mxfile>
